<?xml version="1.0" encoding="UTF-8" standalone="no"?>
<!-- Created with Inkscape (http://www.inkscape.org/) -->

<svg
   width="1308.2611mm"
   height="109.02221mm"
   viewBox="0 0 1308.2611 109.02221"
   version="1.1"
   id="svg1"
   inkscape:version="1.3.2 (091e20e, 2023-11-25, custom)"
   sodipodi:docname="labelspinsprite.svg"
   inkscape:export-filename="labelspinsprite.png"
   inkscape:export-xdpi="96"
   inkscape:export-ydpi="96"
   xmlns:inkscape="http://www.inkscape.org/namespaces/inkscape"
   xmlns:sodipodi="http://sodipodi.sourceforge.net/DTD/sodipodi-0.dtd"
   xmlns="http://www.w3.org/2000/svg"
   xmlns:svg="http://www.w3.org/2000/svg">
  <sodipodi:namedview
     id="namedview1"
     pagecolor="#ffffff"
     bordercolor="#000000"
     borderopacity="0.25"
     inkscape:showpageshadow="2"
     inkscape:pageopacity="0.0"
     inkscape:pagecheckerboard="0"
     inkscape:deskcolor="#d1d1d1"
     inkscape:document-units="mm"
     inkscape:zoom="0.18106587"
     inkscape:cx="2082.1152"
     inkscape:cy="-278.90403"
     inkscape:window-width="1920"
     inkscape:window-height="1009"
     inkscape:window-x="-8"
     inkscape:window-y="-8"
     inkscape:window-maximized="1"
     inkscape:current-layer="layer1" />
  <defs
     id="defs1" />
  <g
     inkscape:label="Layer 1"
     inkscape:groupmode="layer"
     id="layer1"
     transform="translate(-0.65125562,28.38936)">
    <path
       sodipodi:type="star"
       style="fill:#ffffff;fill-opacity:1;stroke:none;stroke-width:1.32292;stroke-linecap:square;stroke-miterlimit:4.9;paint-order:stroke fill markers"
       id="path1"
       inkscape:flatsided="false"
       sodipodi:sides="30"
       sodipodi:cx="50.413284"
       sodipodi:cy="83.291512"
       sodipodi:r1="54.511356"
       sodipodi:r2="46.007584"
       sodipodi:arg1="-1.0441691"
       sodipodi:arg2="-0.9394493"
       inkscape:rounded="1.0408341e-17"
       inkscape:randomized="0"
       d="m 77.811805,36.166051 -0.243342,9.986612 9.442553,-3.260335 -2.314358,9.717787 9.914072,-1.225872 -4.284225,9.024249 9.952295,0.862168 -6.066848,7.936306 9.555568,2.912526 -7.584332,6.50151 8.741202,4.835594 -8.770331,4.782566 7.544811,6.547323 -9.573031,2.854601 6.018671,7.972904 -9.957339,0.80187 4.22949,9.05003 -9.906468,-1.28589 2.255459,9.73162 -9.422636,-3.31746 0.182854,9.9879 -8.526989,-5.20405 -1.897743,9.80766 -7.258672,-6.86319 -3.8954,9.19878 -5.673115,-8.22238 -5.722809,8.18786 -3.839617,-9.2222 -7.300104,6.8191 -1.838309,-9.81897 -8.558348,5.1523 0.243342,-9.98661 -9.442553,3.26033 2.314358,-9.71778 -9.9140725,1.22587 4.2842255,-9.02425 -9.95229933,-0.86217 6.06685163,-7.936303 -9.555563,-2.912526 7.5843272,-6.50151 -8.7412026,-4.835594 8.7703313,-4.782566 -7.5448098,-6.547323 9.5730298,-2.854601 -6.01867251,-7.972902 9.95734131,-0.801876 -4.2294908,-9.050028 9.9064688,1.285894 -2.255459,-9.731623 9.422635,3.317465 -0.182853,-9.987901 8.526989,5.204047 1.897743,-9.807658 7.258671,6.863186 3.8954,-9.198774 5.673116,8.222372 5.722809,-8.18786 3.839617,9.2222 7.300103,-6.819096 1.838309,9.818974 z"
       inkscape:transform-center-y="-1.0493419e-06"
       transform="translate(4.7490777,-57.169765)" />
    <path
       sodipodi:type="star"
       style="fill:#ffffff;fill-opacity:1;stroke:none;stroke-width:1.32292;stroke-linecap:square;stroke-miterlimit:4.9;paint-order:stroke fill markers"
       id="path1-0"
       inkscape:flatsided="false"
       sodipodi:sides="30"
       sodipodi:cx="50.413284"
       sodipodi:cy="83.291512"
       sodipodi:r1="54.511356"
       sodipodi:r2="46.007584"
       sodipodi:arg1="-1.0441691"
       sodipodi:arg2="-0.9394493"
       inkscape:rounded="1.0408341e-17"
       inkscape:randomized="0"
       d="m 77.811805,36.166051 -0.243342,9.986612 9.442553,-3.260335 -2.314358,9.717787 9.914072,-1.225872 -4.284225,9.024249 9.952295,0.862168 -6.066848,7.936306 9.555568,2.912526 -7.584332,6.50151 8.741202,4.835594 -8.770331,4.782566 7.544811,6.547323 -9.573031,2.854601 6.018671,7.972904 -9.957339,0.80187 4.22949,9.05003 -9.906468,-1.28589 2.255459,9.73162 -9.422636,-3.31746 0.182854,9.9879 -8.526989,-5.20405 -1.897743,9.80766 -7.258672,-6.86319 -3.8954,9.19878 -5.673115,-8.22238 -5.722809,8.18786 -3.839617,-9.2222 -7.300104,6.8191 -1.838309,-9.81897 -8.558348,5.1523 0.243342,-9.98661 -9.442553,3.26033 2.314358,-9.71778 -9.9140725,1.22587 4.2842255,-9.02425 -9.95229933,-0.86217 6.06685163,-7.936303 -9.555563,-2.912526 7.5843272,-6.50151 -8.7412026,-4.835594 8.7703313,-4.782566 -7.5448098,-6.547323 9.5730298,-2.854601 -6.01867251,-7.972902 9.95734131,-0.801876 -4.2294908,-9.050028 9.9064688,1.285894 -2.255459,-9.731623 9.422635,3.317465 -0.182853,-9.987901 8.526989,5.204047 1.897743,-9.807658 7.258671,6.863186 3.8954,-9.198774 5.673116,8.222372 5.722809,-8.18786 3.839617,9.2222 7.300103,-6.819096 1.838309,9.818974 z"
       transform="rotate(1,3382.802,6573.1559)" />
    <path
       sodipodi:type="star"
       style="fill:#ffffff;fill-opacity:1;stroke:none;stroke-width:1.32292;stroke-linecap:square;stroke-miterlimit:4.9;paint-order:stroke fill markers"
       id="path1-9"
       inkscape:flatsided="false"
       sodipodi:sides="30"
       sodipodi:cx="50.413284"
       sodipodi:cy="83.291512"
       sodipodi:r1="54.511356"
       sodipodi:r2="46.007584"
       sodipodi:arg1="-1.0441691"
       sodipodi:arg2="-0.9394493"
       inkscape:rounded="1.0408341e-17"
       inkscape:randomized="0"
       d="m 77.811805,36.166051 -0.243342,9.986612 9.442553,-3.260335 -2.314358,9.717787 9.914072,-1.225872 -4.284225,9.024249 9.952295,0.862168 -6.066848,7.936306 9.555568,2.912526 -7.584332,6.50151 8.741202,4.835594 -8.770331,4.782566 7.544811,6.547323 -9.573031,2.854601 6.018671,7.972904 -9.957339,0.80187 4.22949,9.05003 -9.906468,-1.28589 2.255459,9.73162 -9.422636,-3.31746 0.182854,9.9879 -8.526989,-5.20405 -1.897743,9.80766 -7.258672,-6.86319 -3.8954,9.19878 -5.673115,-8.22238 -5.722809,8.18786 -3.839617,-9.2222 -7.300104,6.8191 -1.838309,-9.81897 -8.558348,5.1523 0.243342,-9.98661 -9.442553,3.26033 2.314358,-9.71778 -9.9140725,1.22587 4.2842255,-9.02425 -9.95229933,-0.86217 6.06685163,-7.936303 -9.555563,-2.912526 7.5843272,-6.50151 -8.7412026,-4.835594 8.7703313,-4.782566 -7.5448098,-6.547323 9.5730298,-2.854601 -6.01867251,-7.972902 9.95734131,-0.801876 -4.2294908,-9.050028 9.9064688,1.285894 -2.255459,-9.731623 9.422635,3.317465 -0.182853,-9.987901 8.526989,5.204047 1.897743,-9.807658 7.258671,6.863186 3.8954,-9.198774 5.673116,8.222372 5.722809,-8.18786 3.839617,9.2222 7.300103,-6.819096 1.838309,9.818974 z"
       inkscape:transform-center-y="-2.5638366e-06"
       transform="rotate(2,1799.4369,6436.6222)"
       inkscape:transform-center-x="-1.3416067e-06" />
    <path
       sodipodi:type="star"
       style="fill:#ffffff;fill-opacity:1;stroke:none;stroke-width:1.32292;stroke-linecap:square;stroke-miterlimit:4.9;paint-order:stroke fill markers"
       id="path1-7"
       inkscape:flatsided="false"
       sodipodi:sides="30"
       sodipodi:cx="50.413284"
       sodipodi:cy="83.291512"
       sodipodi:r1="54.511356"
       sodipodi:r2="46.007584"
       sodipodi:arg1="-1.0441691"
       sodipodi:arg2="-0.9394493"
       inkscape:rounded="1.0408341e-17"
       inkscape:randomized="0"
       d="m 77.811805,36.166051 -0.243342,9.986612 9.442553,-3.260335 -2.314358,9.717787 9.914072,-1.225872 -4.284225,9.024249 9.952295,0.862168 -6.066848,7.936306 9.555568,2.912526 -7.584332,6.50151 8.741202,4.835594 -8.770331,4.782566 7.544811,6.547323 -9.573031,2.854601 6.018671,7.972904 -9.957339,0.80187 4.22949,9.05003 -9.906468,-1.28589 2.255459,9.73162 -9.422636,-3.31746 0.182854,9.9879 -8.526989,-5.20405 -1.897743,9.80766 -7.258672,-6.86319 -3.8954,9.19878 -5.673115,-8.22238 -5.722809,8.18786 -3.839617,-9.2222 -7.300104,6.8191 -1.838309,-9.81897 -8.558348,5.1523 0.243342,-9.98661 -9.442553,3.26033 2.314358,-9.71778 -9.9140725,1.22587 4.2842255,-9.02425 -9.95229933,-0.86217 6.06685163,-7.936303 -9.555563,-2.912526 7.5843272,-6.50151 -8.7412026,-4.835594 8.7703313,-4.782566 -7.5448098,-6.547323 9.5730298,-2.854601 -6.01867251,-7.972902 9.95734131,-0.801876 -4.2294908,-9.050028 9.9064688,1.285894 -2.255459,-9.731623 9.422635,3.317465 -0.182853,-9.987901 8.526989,5.204047 1.897743,-9.807658 7.258671,6.863186 3.8954,-9.198774 5.673116,8.222372 5.722809,-8.18786 3.839617,9.2222 7.300103,-6.819096 1.838309,9.818974 z"
       inkscape:transform-center-y="-2.8033656e-06"
       transform="rotate(3,1307.9338,6390.4722)" />
    <path
       sodipodi:type="star"
       style="fill:#ffffff;fill-opacity:1;stroke:none;stroke-width:1.32292;stroke-linecap:square;stroke-miterlimit:4.9;paint-order:stroke fill markers"
       id="path1-75"
       inkscape:flatsided="false"
       sodipodi:sides="30"
       sodipodi:cx="50.413284"
       sodipodi:cy="83.291512"
       sodipodi:r1="54.511356"
       sodipodi:r2="46.007584"
       sodipodi:arg1="-1.0441691"
       sodipodi:arg2="-0.9394493"
       inkscape:rounded="1.0408341e-17"
       inkscape:randomized="0"
       d="m 77.811805,36.166051 -0.243342,9.986612 9.442553,-3.260335 -2.314358,9.717787 9.914072,-1.225872 -4.284225,9.024249 9.952295,0.862168 -6.066848,7.936306 9.555568,2.912526 -7.584332,6.50151 8.741202,4.835594 -8.770331,4.782566 7.544811,6.547323 -9.573031,2.854601 6.018671,7.972904 -9.957339,0.80187 4.22949,9.05003 -9.906468,-1.28589 2.255459,9.73162 -9.422636,-3.31746 0.182854,9.9879 -8.526989,-5.20405 -1.897743,9.80766 -7.258672,-6.86319 -3.8954,9.19878 -5.673115,-8.22238 -5.722809,8.18786 -3.839617,-9.2222 -7.300104,6.8191 -1.838309,-9.81897 -8.558348,5.1523 0.243342,-9.98661 -9.442553,3.26033 2.314358,-9.71778 -9.9140725,1.22587 4.2842255,-9.02425 -9.95229933,-0.86217 6.06685163,-7.936303 -9.555563,-2.912526 7.5843272,-6.50151 -8.7412026,-4.835594 8.7703313,-4.782566 -7.5448098,-6.547323 9.5730298,-2.854601 -6.01867251,-7.972902 9.95734131,-0.801876 -4.2294908,-9.050028 9.9064688,1.285894 -2.255459,-9.731623 9.422635,3.317465 -0.182853,-9.987901 8.526989,5.204047 1.897743,-9.807658 7.258671,6.863186 3.8954,-9.198774 5.673116,8.222372 5.722809,-8.18786 3.839617,9.2222 7.300103,-6.819096 1.838309,9.818974 z"
       inkscape:transform-center-y="-2.2165377e-06"
       transform="rotate(4,1089.3962,6366.6799)"
       inkscape:transform-center-x="2.6924021e-06" />
    <path
       sodipodi:type="star"
       style="fill:#ffffff;fill-opacity:1;stroke:none;stroke-width:1.32292;stroke-linecap:square;stroke-miterlimit:4.9;paint-order:stroke fill markers"
       id="path1-1"
       inkscape:flatsided="false"
       sodipodi:sides="30"
       sodipodi:cx="50.413284"
       sodipodi:cy="83.291512"
       sodipodi:r1="54.511356"
       sodipodi:r2="46.007584"
       sodipodi:arg1="-1.0441691"
       sodipodi:arg2="-0.9394493"
       inkscape:rounded="1.0408341e-17"
       inkscape:randomized="0"
       d="m 77.811805,36.166051 -0.243342,9.986612 9.442553,-3.260335 -2.314358,9.717787 9.914072,-1.225872 -4.284225,9.024249 9.952295,0.862168 -6.066848,7.936306 9.555568,2.912526 -7.584332,6.50151 8.741202,4.835594 -8.770331,4.782566 7.544811,6.547323 -9.573031,2.854601 6.018671,7.972904 -9.957339,0.80187 4.22949,9.05003 -9.906468,-1.28589 2.255459,9.73162 -9.422636,-3.31746 0.182854,9.9879 -8.526989,-5.20405 -1.897743,9.80766 -7.258672,-6.86319 -3.8954,9.19878 -5.673115,-8.22238 -5.722809,8.18786 -3.839617,-9.2222 -7.300104,6.8191 -1.838309,-9.81897 -8.558348,5.1523 0.243342,-9.98661 -9.442553,3.26033 2.314358,-9.71778 -9.9140725,1.22587 4.2842255,-9.02425 -9.95229933,-0.86217 6.06685163,-7.936303 -9.555563,-2.912526 7.5843272,-6.50151 -8.7412026,-4.835594 8.7703313,-4.782566 -7.5448098,-6.547323 9.5730298,-2.854601 -6.01867251,-7.972902 9.95734131,-0.801876 -4.2294908,-9.050028 9.9064688,1.285894 -2.255459,-9.731623 9.422635,3.317465 -0.182853,-9.987901 8.526989,5.204047 1.897743,-9.807658 7.258671,6.863186 3.8954,-9.198774 5.673116,8.222372 5.722809,-8.18786 3.839617,9.2222 7.300103,-6.819096 1.838309,9.818974 z"
       transform="rotate(5,980.0448,6351.6405)" />
    <path
       sodipodi:type="star"
       style="fill:#ffffff;fill-opacity:1;stroke:none;stroke-width:1.32292;stroke-linecap:square;stroke-miterlimit:4.9;paint-order:stroke fill markers"
       id="path1-8"
       inkscape:flatsided="false"
       sodipodi:sides="30"
       sodipodi:cx="50.413284"
       sodipodi:cy="83.291512"
       sodipodi:r1="54.511356"
       sodipodi:r2="46.007584"
       sodipodi:arg1="-1.0441691"
       sodipodi:arg2="-0.9394493"
       inkscape:rounded="1.0408341e-17"
       inkscape:randomized="0"
       d="m 77.811805,36.166051 -0.243342,9.986612 9.442553,-3.260335 -2.314358,9.717787 9.914072,-1.225872 -4.284225,9.024249 9.952295,0.862168 -6.066848,7.936306 9.555568,2.912526 -7.584332,6.50151 8.741202,4.835594 -8.770331,4.782566 7.544811,6.547323 -9.573031,2.854601 6.018671,7.972904 -9.957339,0.80187 4.22949,9.05003 -9.906468,-1.28589 2.255459,9.73162 -9.422636,-3.31746 0.182854,9.9879 -8.526989,-5.20405 -1.897743,9.80766 -7.258672,-6.86319 -3.8954,9.19878 -5.673115,-8.22238 -5.722809,8.18786 -3.839617,-9.2222 -7.300104,6.8191 -1.838309,-9.81897 -8.558348,5.1523 0.243342,-9.98661 -9.442553,3.26033 2.314358,-9.71778 -9.9140725,1.22587 4.2842255,-9.02425 -9.95229933,-0.86217 6.06685163,-7.936303 -9.555563,-2.912526 7.5843272,-6.50151 -8.7412026,-4.835594 8.7703313,-4.782566 -7.5448098,-6.547323 9.5730298,-2.854601 -6.01867251,-7.972902 9.95734131,-0.801876 -4.2294908,-9.050028 9.9064688,1.285894 -2.255459,-9.731623 9.422635,3.317465 -0.182853,-9.987901 8.526989,5.204047 1.897743,-9.807658 7.258671,6.863186 3.8954,-9.198774 5.673116,8.222372 5.722809,-8.18786 3.839617,9.2222 7.300103,-6.819096 1.838309,9.818974 z"
       inkscape:transform-center-y="-1.2113117e-06"
       transform="rotate(6,925.28651,6340.8187)"
       inkscape:transform-center-x="2.0643898e-06" />
    <path
       sodipodi:type="star"
       style="fill:#ffffff;fill-opacity:1;stroke:none;stroke-width:1.32292;stroke-linecap:square;stroke-miterlimit:4.9;paint-order:stroke fill markers"
       id="path1-2"
       inkscape:flatsided="false"
       sodipodi:sides="30"
       sodipodi:cx="50.413284"
       sodipodi:cy="83.291512"
       sodipodi:r1="54.511356"
       sodipodi:r2="46.007584"
       sodipodi:arg1="-1.0441691"
       sodipodi:arg2="-0.9394493"
       inkscape:rounded="1.0408341e-17"
       inkscape:randomized="0"
       d="m 77.811805,36.166051 -0.243342,9.986612 9.442553,-3.260335 -2.314358,9.717787 9.914072,-1.225872 -4.284225,9.024249 9.952295,0.862168 -6.066848,7.936306 9.555568,2.912526 -7.584332,6.50151 8.741202,4.835594 -8.770331,4.782566 7.544811,6.547323 -9.573031,2.854601 6.018671,7.972904 -9.957339,0.80187 4.22949,9.05003 -9.906468,-1.28589 2.255459,9.73162 -9.422636,-3.31746 0.182854,9.9879 -8.526989,-5.20405 -1.897743,9.80766 -7.258672,-6.86319 -3.8954,9.19878 -5.673115,-8.22238 -5.722809,8.18786 -3.839617,-9.2222 -7.300104,6.8191 -1.838309,-9.81897 -8.558348,5.1523 0.243342,-9.98661 -9.442553,3.26033 2.314358,-9.71778 -9.9140725,1.22587 4.2842255,-9.02425 -9.95229933,-0.86217 6.06685163,-7.936303 -9.555563,-2.912526 7.5843272,-6.50151 -8.7412026,-4.835594 8.7703313,-4.782566 -7.5448098,-6.547323 9.5730298,-2.854601 -6.01867251,-7.972902 9.95734131,-0.801876 -4.2294908,-9.050028 9.9064688,1.285894 -2.255459,-9.731623 9.422635,3.317465 -0.182853,-9.987901 8.526989,5.204047 1.897743,-9.807658 7.258671,6.863186 3.8954,-9.198774 5.673116,8.222372 5.722809,-8.18786 3.839617,9.2222 7.300103,-6.819096 1.838309,9.818974 z"
       inkscape:transform-center-y="-1.4064727e-06"
       transform="rotate(7,901.72427,6332.271)" />
    <path
       sodipodi:type="star"
       style="fill:#ffffff;fill-opacity:1;stroke:none;stroke-width:1.32292;stroke-linecap:square;stroke-miterlimit:4.9;paint-order:stroke fill markers"
       id="path1-72"
       inkscape:flatsided="false"
       sodipodi:sides="30"
       sodipodi:cx="50.413284"
       sodipodi:cy="83.291512"
       sodipodi:r1="54.511356"
       sodipodi:r2="46.007584"
       sodipodi:arg1="-1.0441691"
       sodipodi:arg2="-0.9394493"
       inkscape:rounded="1.0408341e-17"
       inkscape:randomized="0"
       d="m 77.811805,36.166051 -0.243342,9.986612 9.442553,-3.260335 -2.314358,9.717787 9.914072,-1.225872 -4.284225,9.024249 9.952295,0.862168 -6.066848,7.936306 9.555568,2.912526 -7.584332,6.50151 8.741202,4.835594 -8.770331,4.782566 7.544811,6.547323 -9.573031,2.854601 6.018671,7.972904 -9.957339,0.80187 4.22949,9.05003 -9.906468,-1.28589 2.255459,9.73162 -9.422636,-3.31746 0.182854,9.9879 -8.526989,-5.20405 -1.897743,9.80766 -7.258672,-6.86319 -3.8954,9.19878 -5.673115,-8.22238 -5.722809,8.18786 -3.839617,-9.2222 -7.300104,6.8191 -1.838309,-9.81897 -8.558348,5.1523 0.243342,-9.98661 -9.442553,3.26033 2.314358,-9.71778 -9.9140725,1.22587 4.2842255,-9.02425 -9.95229933,-0.86217 6.06685163,-7.936303 -9.555563,-2.912526 7.5843272,-6.50151 -8.7412026,-4.835594 8.7703313,-4.782566 -7.5448098,-6.547323 9.5730298,-2.854601 -6.01867251,-7.972902 9.95734131,-0.801876 -4.2294908,-9.050028 9.9064688,1.285894 -2.255459,-9.731623 9.422635,3.317465 -0.182853,-9.987901 8.526989,5.204047 1.897743,-9.807658 7.258671,6.863186 3.8954,-9.198774 5.673116,8.222372 5.722809,-8.18786 3.839617,9.2222 7.300103,-6.819096 1.838309,9.818974 z"
       inkscape:transform-center-y="-1.5421121e-06"
       transform="rotate(8,897.65954,6325.0252)"
       inkscape:transform-center-x="4.8900913e-06" />
    <path
       sodipodi:type="star"
       style="fill:#ffffff;fill-opacity:1;stroke:none;stroke-width:1.32292;stroke-linecap:square;stroke-miterlimit:4.9;paint-order:stroke fill markers"
       id="path1-19"
       inkscape:flatsided="false"
       sodipodi:sides="30"
       sodipodi:cx="50.413284"
       sodipodi:cy="83.291512"
       sodipodi:r1="54.511356"
       sodipodi:r2="46.007584"
       sodipodi:arg1="-1.0441691"
       sodipodi:arg2="-0.9394493"
       inkscape:rounded="1.0408341e-17"
       inkscape:randomized="0"
       d="m 77.811805,36.166051 -0.243342,9.986612 9.442553,-3.260335 -2.314358,9.717787 9.914072,-1.225872 -4.284225,9.024249 9.952295,0.862168 -6.066848,7.936306 9.555568,2.912526 -7.584332,6.50151 8.741202,4.835594 -8.770331,4.782566 7.544811,6.547323 -9.573031,2.854601 6.018671,7.972904 -9.957339,0.80187 4.22949,9.05003 -9.906468,-1.28589 2.255459,9.73162 -9.422636,-3.31746 0.182854,9.9879 -8.526989,-5.20405 -1.897743,9.80766 -7.258672,-6.86319 -3.8954,9.19878 -5.673115,-8.22238 -5.722809,8.18786 -3.839617,-9.2222 -7.300104,6.8191 -1.838309,-9.81897 -8.558348,5.1523 0.243342,-9.98661 -9.442553,3.26033 2.314358,-9.71778 -9.9140725,1.22587 4.2842255,-9.02425 -9.95229933,-0.86217 6.06685163,-7.936303 -9.555563,-2.912526 7.5843272,-6.50151 -8.7412026,-4.835594 8.7703313,-4.782566 -7.5448098,-6.547323 9.5730298,-2.854601 -6.01867251,-7.972902 9.95734131,-0.801876 -4.2294908,-9.050028 9.9064688,1.285894 -2.255459,-9.731623 9.422635,3.317465 -0.182853,-9.987901 8.526989,5.204047 1.897743,-9.807658 7.258671,6.863186 3.8954,-9.198774 5.673116,8.222372 5.722809,-8.18786 3.839617,9.2222 7.300103,-6.819096 1.838309,9.818974 z"
       inkscape:transform-center-y="-1.1559188e-06"
       transform="rotate(9,906.59315,6318.5415)"
       inkscape:transform-center-x="-1.2333047e-06" />
    <path
       sodipodi:type="star"
       style="fill:#ffffff;fill-opacity:1;stroke:none;stroke-width:1.32292;stroke-linecap:square;stroke-miterlimit:4.9;paint-order:stroke fill markers"
       id="path1-20"
       inkscape:flatsided="false"
       sodipodi:sides="30"
       sodipodi:cx="50.413284"
       sodipodi:cy="83.291512"
       sodipodi:r1="54.511356"
       sodipodi:r2="46.007584"
       sodipodi:arg1="-1.0441691"
       sodipodi:arg2="-0.9394493"
       inkscape:rounded="1.0408341e-17"
       inkscape:randomized="0"
       d="m 77.811805,36.166051 -0.243342,9.986612 9.442553,-3.260335 -2.314358,9.717787 9.914072,-1.225872 -4.284225,9.024249 9.952295,0.862168 -6.066848,7.936306 9.555568,2.912526 -7.584332,6.50151 8.741202,4.835594 -8.770331,4.782566 7.544811,6.547323 -9.573031,2.854601 6.018671,7.972904 -9.957339,0.80187 4.22949,9.05003 -9.906468,-1.28589 2.255459,9.73162 -9.422636,-3.31746 0.182854,9.9879 -8.526989,-5.20405 -1.897743,9.80766 -7.258672,-6.86319 -3.8954,9.19878 -5.673115,-8.22238 -5.722809,8.18786 -3.839617,-9.2222 -7.300104,6.8191 -1.838309,-9.81897 -8.558348,5.1523 0.243342,-9.98661 -9.442553,3.26033 2.314358,-9.71778 -9.9140725,1.22587 4.2842255,-9.02425 -9.95229933,-0.86217 6.06685163,-7.936303 -9.555563,-2.912526 7.5843272,-6.50151 -8.7412026,-4.835594 8.7703313,-4.782566 -7.5448098,-6.547323 9.5730298,-2.854601 -6.01867251,-7.972902 9.95734131,-0.801876 -4.2294908,-9.050028 9.9064688,1.285894 -2.255459,-9.731623 9.422635,3.317465 -0.182853,-9.987901 8.526989,5.204047 1.897743,-9.807658 7.258671,6.863186 3.8954,-9.198774 5.673116,8.222372 5.722809,-8.18786 3.839617,9.2222 7.300103,-6.819096 1.838309,9.818974 z"
       inkscape:transform-center-y="-1.2593089e-06"
       transform="rotate(10,924.62559,6312.4957)"
       inkscape:transform-center-x="-4.9099802e-06" />
    <path
       sodipodi:type="star"
       style="fill:#ffffff;fill-opacity:1;stroke:none;stroke-width:1.32292;stroke-linecap:square;stroke-miterlimit:4.9;paint-order:stroke fill markers"
       id="path1-3"
       inkscape:flatsided="false"
       sodipodi:sides="30"
       sodipodi:cx="50.413284"
       sodipodi:cy="83.291512"
       sodipodi:r1="54.511356"
       sodipodi:r2="46.007584"
       sodipodi:arg1="-1.0441691"
       sodipodi:arg2="-0.9394493"
       inkscape:rounded="1.0408341e-17"
       inkscape:randomized="0"
       d="m 77.811805,36.166051 -0.243342,9.986612 9.442553,-3.260335 -2.314358,9.717787 9.914072,-1.225872 -4.284225,9.024249 9.952295,0.862168 -6.066848,7.936306 9.555568,2.912526 -7.584332,6.50151 8.741202,4.835594 -8.770331,4.782566 7.544811,6.547323 -9.573031,2.854601 6.018671,7.972904 -9.957339,0.80187 4.22949,9.05003 -9.906468,-1.28589 2.255459,9.73162 -9.422636,-3.31746 0.182854,9.9879 -8.526989,-5.20405 -1.897743,9.80766 -7.258672,-6.86319 -3.8954,9.19878 -5.673115,-8.22238 -5.722809,8.18786 -3.839617,-9.2222 -7.300104,6.8191 -1.838309,-9.81897 -8.558348,5.1523 0.243342,-9.98661 -9.442553,3.26033 2.314358,-9.71778 -9.9140725,1.22587 4.2842255,-9.02425 -9.95229933,-0.86217 6.06685163,-7.936303 -9.555563,-2.912526 7.5843272,-6.50151 -8.7412026,-4.835594 8.7703313,-4.782566 -7.5448098,-6.547323 9.5730298,-2.854601 -6.01867251,-7.972902 9.95734131,-0.801876 -4.2294908,-9.050028 9.9064688,1.285894 -2.255459,-9.731623 9.422635,3.317465 -0.182853,-9.987901 8.526989,5.204047 1.897743,-9.807658 7.258671,6.863186 3.8954,-9.198774 5.673116,8.222372 5.722809,-8.18786 3.839617,9.2222 7.300103,-6.819096 1.838309,9.818974 z"
       inkscape:transform-center-y="-1.1248013e-06"
       transform="rotate(11,949.27534,6306.6814)" />
  </g>
</svg>
